# xmcd
#
# Track frame offsets:
#	182
#	11870
#	28515
#	46275
#	58837
#	78327
#	89890
#	107045
#	120445
#	133492
#	147595
#	161765
#	175957
#
# Disc length: 2594 seconds
#
# Revision: 0
# Processed by: cddbd v1.5.2PL0 Copyright (c) Steve Scherf et al.
# Submitted via: EasyCDDAExtractor 12.0.0.1
#
DISCID=be0a200d
DTITLE=Phil Edwards - Made In Nashville
DYEAR=1993
DGENRE=Country
TTITLE0=Not counting you
TTITLE1=Walk softly on this heart of mine
TTITLE2=Help me hold on
TTITLE3=Give me one more chance
TTITLE4=The coward of the county
TTITLE5=I've cried my last tear foryou
TTITLE6=It's just a matter of time
TTITLE7=Dumas Walker
TTITLE8=High cotton
TTITLE9=Lonesom me
TTITLE10=Country roads
TTITLE11=Tennessee flap top box
TTITLE12=Country boy
EXTD=
EXTT0=
EXTT1=
EXTT2=
EXTT3=
EXTT4=
EXTT5=
EXTT6=
EXTT7=
EXTT8=
EXTT9=
EXTT10=
EXTT11=
EXTT12=
PLAYORDER=
